<?xml version="1.0" encoding="utf-8"?>
<!-- Generator: Adobe Illustrator 20.1.0, SVG Export Plug-In . SVG Version: 6.00 Build 0)  -->
<svg version="1.1" xmlns="http://www.w3.org/2000/svg" xmlns:xlink="http://www.w3.org/1999/xlink" x="0px" y="0px"
	 viewBox="0 0 900 900" style="enable-background:new 0 0 900 900;" xml:space="preserve">
<style type="text/css">
	.st0{fill:black;}
	.st1{display:none;}
	.st2{display:inline;}
</style>
<g id="Layer_1">
	<rect fill="black" x="2.3" y="1.2" class="st0" width="897.7" height="897.7"/>
</g>
<g id="Layer_2">
	<g>
		<path fill="white" d="M228.9,814.4l316.3-547.9L435,75.1l-0.2,0.4v-0.4H321.6v25.8h0c43.7,0,71.1,47.4,49.2,85.2L7.7,813.8L228.9,814.4z"/>
		<path fill="white" d="M749.9,620.1L638.1,813.7l255.9,0.6v-25.8h0c-29.1,0-56-15.6-70.6-40.8L749.9,620.1z"/>
	</g>
	<path d="M491.7,363.3"/>
</g>
<g id="Layer_2_copy" class="st1">
	<path fill="white" class="st2" d="M625.9,595.8l-168-291.6c-3.5-6-12.1-6-15.6,0L274.1,594.9c-3.5,6,0.8,13.5,7.8,13.5l336.2,0.9
		C625,609.3,629.3,601.8,625.9,595.8z"/>
</g>
</svg>
