<svg id="Layer_1" data-name="Layer 1" xmlns="http://www.w3.org/2000/svg" viewBox="0 0 24 24"><defs><style>.cls-1{fill:none;}</style></defs><title>outline-instagram-24px</title><path fill="white" d="M16.13,6.7a1.2,1.2,0,1,1,1.22,1.17A1.2,1.2,0,0,1,16.13,6.7Z"/><path fill="white" d="M14.76,4c2.26,0,2.84.21,3.41.51a3.26,3.26,0,0,1,1.31,1.32c.3.56.51,1.14.51,3.39v5.54c0,2.25-.21,2.83-.51,3.39a3.26,3.26,0,0,1-1.31,1.32c-.57.3-1.15.51-3.41.51H9.22c-2.26,0-2.83-.21-3.4-.51a3.15,3.15,0,0,1-1.31-1.32C4.21,17.6,4,17,4,14.77V9.23C4,7,4.21,6.4,4.51,5.84A3.15,3.15,0,0,1,5.82,4.52C6.39,4.22,7,4,9.22,4h5.54m0-2H9.22c-2.51,0-3.42.26-4.34.75A5.09,5.09,0,0,0,2.75,4.89C2.26,5.81,2,6.72,2,9.23v5.54c0,2.51.27,3.42.76,4.34a5.09,5.09,0,0,0,2.13,2.13c.92.49,1.83.75,4.34.75h5.54c2.52,0,3.43-.26,4.35-.75a5.09,5.09,0,0,0,2.13-2.13c.49-.92.75-1.83.75-4.34V9.23c0-2.51-.26-3.42-.75-4.34a5.09,5.09,0,0,0-2.13-2.13C18.19,2.27,17.28,2,14.76,2Z"/><path fill="white" d="M12,8.87A3.13,3.13,0,1,1,8.88,12,3.13,3.13,0,0,1,12,8.87m0-2A5.13,5.13,0,1,0,17.13,12,5.12,5.12,0,0,0,12,6.87Z"/><path class="cls-1" d="M0,0H24V24H0Z"/></svg>